<svg width="95" height="95" viewBox="0 0 95 95" fill="none" xmlns="http://www.w3.org/2000/svg">
<path d="M42.95 11.1V38.4C42.95 43.4257 33.7831 47.5 22.475 47.5C11.167 47.5 2 43.4257 2 38.4V11.1" stroke="black" stroke-width="4" stroke-linecap="round" stroke-linejoin="round"/>
<path d="M42.95 24.75C42.95 29.7757 33.7831 33.85 22.475 33.85C11.167 33.85 2 29.7757 2 24.75" stroke="black" stroke-width="4" stroke-linecap="round" stroke-linejoin="round"/>
<path d="M42.95 11.1C42.95 16.1257 33.7831 20.2 22.475 20.2C11.167 20.2 2 16.1257 2 11.1C2 6.07421 11.167 2 22.475 2C33.7831 2 42.95 6.07421 42.95 11.1Z" fill="#2F88FF" stroke="black" stroke-width="4" stroke-linecap="round" stroke-linejoin="round"/>
<path d="M65.7 6.55005H79.35C84.3757 6.55005 88.45 10.6243 88.45 15.65V29.3" stroke="black" stroke-width="4" stroke-linecap="round" stroke-linejoin="round"/>
<path d="M29.3 88.45H15.65C10.6242 88.45 6.55 84.3757 6.55 79.35V65.7" stroke="black" stroke-width="4" stroke-linecap="round" stroke-linejoin="round"/>
<path d="M72.525 70.25C78.8072 70.25 83.9 65.1572 83.9 58.875C83.9 52.5928 78.8072 47.5 72.525 47.5C66.2428 47.5 61.15 52.5928 61.15 58.875C61.15 65.1572 66.2428 70.25 72.525 70.25Z" fill="#2F88FF" stroke="black" stroke-width="4" stroke-linecap="round" stroke-linejoin="round"/>
<path d="M93 93H52.05C52.05 81.6919 61.2169 72.525 72.525 72.525C83.8331 72.525 93 81.6919 93 93Z" fill="#2F88FF" stroke="black" stroke-width="4" stroke-linecap="round" stroke-linejoin="round"/>
</svg>
