<svg width="57" height="53" viewBox="0 0 57 53" fill="none" xmlns="http://www.w3.org/2000/svg">
<path fill-rule="evenodd" clip-rule="evenodd" d="M16.53 37.0998H14.25V39.7498H16.53C17.385 39.7498 17.955 39.2198 17.955 38.4248C17.955 37.6298 17.385 37.0998 16.53 37.0998ZM31.35 5.2998H8.55005V47.6998H45.6V18.5498L31.35 5.2998ZM20.52 38.6898C20.52 40.8098 18.81 42.3998 16.53 42.3998H14.25V45.0498H11.4V34.4498H16.53C18.81 34.4498 20.52 36.0398 20.52 38.1598V38.6898ZM32.205 40.0148C32.205 42.6648 29.925 45.0498 26.79 45.0498H22.8V34.4498H26.79C29.64 34.4498 32.205 36.5698 32.205 39.4848V40.0148ZM42.75 37.0998H37.05V39.7498H41.325V42.3998H37.05V45.0498H34.2V34.4498H42.75V37.0998ZM42.75 31.7998H11.4V7.9498H31.35V18.5498H42.75V31.7998ZM26.79 37.0998H25.65V42.3998H26.79C28.5 42.3998 29.64 41.3398 29.64 39.7498C29.64 38.1598 28.215 37.0998 26.79 37.0998Z" fill="black"/>
</svg>
