<svg width="23" height="23" viewBox="0 0 23 23" fill="none" xmlns="http://www.w3.org/2000/svg">
<g clip-path="url(#clip0_13_177)">
<path d="M10.4984 0L12.7685 0.00575C13.6632 0.11385 14.4475 0.53475 15.0938 1.24545C15.6216 1.82505 15.8988 2.49895 15.9149 3.23265H22.2111C22.4214 3.23387 22.6225 3.31848 22.7704 3.4679C22.9184 3.61733 23.0009 3.81935 23 4.0296C23.0005 4.13365 22.9804 4.23678 22.941 4.33308C22.9016 4.42939 22.8436 4.51699 22.7704 4.59089C22.6971 4.66479 22.61 4.72353 22.5141 4.76377C22.4181 4.804 22.3152 4.82495 22.2111 4.8254L20.0997 4.82425V18.1953C20.0997 21.1197 19.0084 23 16.6026 23H6.23185C3.82605 23 2.75195 21.1301 2.75195 18.1953V4.82425H0.788901C0.579156 4.82334 0.37833 4.7393 0.230448 4.59055C0.0825657 4.44181 -0.000305563 4.2405 8.46679e-07 4.03075C8.46679e-07 3.5903 0.353051 3.23495 0.788901 3.23495H7.0794C7.0955 2.64385 7.31515 2.0447 7.7165 1.45245C8.3145 0.56925 9.2483 0.0851 10.4984 0ZM18.5219 4.82425H4.3286V18.1953C4.3286 20.3665 4.9266 21.4084 6.23185 21.4084H16.6026C17.9124 21.4084 18.5231 20.3573 18.5231 18.1953L18.5219 4.82425ZM7.7234 7.291C8.1581 7.291 8.51115 7.6475 8.51115 8.0868V17.3443C8.51161 17.4484 8.49156 17.5515 8.45216 17.6478C8.41276 17.7441 8.35478 17.8317 8.28152 17.9056C8.20826 17.9795 8.12117 18.0382 8.02521 18.0785C7.92925 18.1187 7.8263 18.1396 7.72225 18.1401C7.51231 18.1389 7.31143 18.0544 7.16373 17.9052C7.01603 17.756 6.93358 17.5542 6.9345 17.3443V8.0868C6.9345 7.6475 7.2887 7.291 7.7234 7.291ZM10.8583 7.291C11.2953 7.291 11.6472 7.6475 11.6472 8.0868V17.3443C11.6477 17.4484 11.6276 17.5515 11.5882 17.6478C11.5488 17.7441 11.4908 17.8317 11.4176 17.9056C11.3443 17.9795 11.2572 18.0382 11.1613 18.0785C11.0653 18.1187 10.9624 18.1396 10.8583 18.1401C10.6484 18.1389 10.4475 18.0544 10.2998 17.9052C10.1521 17.756 10.0696 17.5542 10.0706 17.3443V8.0868C10.0706 7.6475 10.4236 7.291 10.8583 7.291ZM13.9955 7.291C14.4302 7.291 14.7833 7.6475 14.7833 8.0868V17.3443C14.7842 17.5542 14.7017 17.756 14.554 17.9052C14.4063 18.0544 14.2054 18.1389 13.9955 18.1401C13.8914 18.1396 13.7885 18.1187 13.6925 18.0785C13.5966 18.0382 13.5095 17.9795 13.4362 17.9056C13.363 17.8317 13.305 17.7441 13.2656 17.6478C13.2262 17.5515 13.2061 17.4484 13.2066 17.3443V8.0868C13.206 7.87675 13.2887 7.67502 13.4366 7.52585C13.5845 7.37667 13.7855 7.29222 13.9955 7.291ZM10.5524 1.5893C9.8141 1.64105 9.32765 1.8929 9.0183 2.3506C8.7906 2.68525 8.67675 2.97505 8.65835 3.2338L14.3371 3.23265C14.321 2.898 14.1887 2.6036 13.9323 2.32185C13.5344 1.88485 13.0928 1.64795 12.6753 1.5916L10.5524 1.5893Z" fill="black"/>
</g>
<defs>
<clipPath id="clip0_13_177">
<rect width="23" height="23" fill="white"/>
</clipPath>
</defs>
</svg>
