<svg width="48" height="48" viewBox="0 0 48 48" fill="none" xmlns="http://www.w3.org/2000/svg">
<path d="M29.3714 23.025L12.7679 20.1V41.7135C12.7681 41.9483 12.8146 42.1807 12.9046 42.3976C12.9947 42.6145 13.1265 42.8115 13.2927 42.9773C13.4589 43.1432 13.6561 43.2748 13.8731 43.3644C14.0901 43.4541 14.3226 43.5002 14.5574 43.5H43.2074C43.4425 43.5006 43.6754 43.4548 43.8927 43.3653C44.1101 43.2758 44.3076 43.1443 44.4741 42.9784C44.6406 42.8125 44.7728 42.6153 44.863 42.3983C44.9532 42.1812 44.9997 41.9485 44.9999 41.7135V33.75L29.3714 23.025Z" fill="#185C37"/>
<path d="M29.3714 4.5H14.5574C14.3226 4.4998 14.0901 4.54586 13.8731 4.63553C13.6561 4.7252 13.4589 4.85674 13.2927 5.02263C13.1265 5.18852 12.9947 5.38552 12.9046 5.60238C12.8146 5.81923 12.7681 6.0517 12.7679 6.2865V14.25L29.3714 24L38.1629 26.925L44.9999 24V14.25L29.3714 4.5Z" fill="#21A366"/>
<path d="M12.7679 14.25H29.3714V24H12.7679V14.25Z" fill="#107C41"/>
<path opacity="0.1" d="M24.6509 12.3H12.7679V36.675H24.6509C25.1244 36.6726 25.5779 36.4838 25.9132 36.1494C26.2484 35.815 26.4384 35.362 26.4419 34.8885V14.0865C26.4384 13.613 26.2484 13.16 25.9132 12.8256C25.5779 12.4912 25.1244 12.3023 24.6509 12.3Z" fill="black"/>
<path opacity="0.2" d="M23.6744 13.275H12.7679V37.65H23.6744C24.1479 37.6477 24.6014 37.4588 24.9367 37.1244C25.2719 36.79 25.4619 36.337 25.4654 35.8635V15.0615C25.4619 14.588 25.2719 14.135 24.9367 13.8006C24.6014 13.4662 24.1479 13.2774 23.6744 13.275Z" fill="black"/>
<path opacity="0.2" d="M23.6744 13.275H12.7679V35.7H23.6744C24.1479 35.6977 24.6014 35.5088 24.9367 35.1744C25.2719 34.84 25.4619 34.387 25.4654 33.9135V15.0615C25.4619 14.588 25.2719 14.135 24.9367 13.8006C24.6014 13.4662 24.1479 13.2774 23.6744 13.275Z" fill="black"/>
<path opacity="0.2" d="M22.6979 13.275H12.7679V35.7H22.6979C23.1714 35.6977 23.6249 35.5088 23.9602 35.1744C24.2954 34.84 24.4854 34.387 24.4889 33.9135V15.0615C24.4854 14.588 24.2954 14.135 23.9602 13.8006C23.6249 13.4662 23.1714 13.2774 22.6979 13.275Z" fill="black"/>
<path d="M4.791 13.275H22.698C23.1723 13.2746 23.6274 13.4626 23.9633 13.7976C24.2991 14.1326 24.4882 14.5872 24.489 15.0615V32.9385C24.4882 33.4129 24.2991 33.8675 23.9633 34.2025C23.6274 34.5375 23.1723 34.7254 22.698 34.725H4.791C4.55607 34.7254 4.32337 34.6795 4.10619 34.5899C3.88901 34.5003 3.69161 34.3688 3.52528 34.2029C3.35895 34.037 3.22695 33.84 3.13682 33.623C3.04669 33.406 3.0002 33.1735 3 32.9385V15.0615C3.0002 14.8266 3.04669 14.594 3.13682 14.3771C3.22695 14.1601 3.35895 13.963 3.52528 13.7971C3.69161 13.6312 3.88901 13.4997 4.10619 13.4101C4.32337 13.3205 4.55607 13.2746 4.791 13.275Z" fill="url(#paint0_linear_26_293)"/>
<path d="M8.55005 29.8095L12.3165 23.9835L8.86655 18.1905H11.637L13.5195 21.9C13.6935 22.251 13.8195 22.512 13.8765 22.686H13.902C14.025 22.404 14.1555 22.1325 14.292 21.867L16.305 18.1965H18.855L15.3165 23.9565L18.945 29.814H16.2315L14.0565 25.7475C13.9556 25.5727 13.8697 25.3895 13.8 25.2H13.764C13.7006 25.3846 13.6161 25.5613 13.512 25.7265L11.2725 29.8095H8.55005Z" fill="white"/>
<path d="M43.209 4.5H29.3715V14.25H45V6.2865C44.9998 6.05157 44.9533 5.81898 44.8631 5.60203C44.773 5.38508 44.641 5.18802 44.4747 5.0221C44.3083 4.85619 44.111 4.72469 43.8938 4.6351C43.6766 4.54552 43.4439 4.49961 43.209 4.5Z" fill="#33C481"/>
<path d="M29.3715 24H45V33.75H29.3715V24Z" fill="#107C41"/>
<defs>
<linearGradient id="paint0_linear_26_293" x1="6.741" y1="11.871" x2="20.748" y2="36.129" gradientUnits="userSpaceOnUse">
<stop stop-color="#18884F"/>
<stop offset="0.5" stop-color="#117E43"/>
<stop offset="1" stop-color="#0B6631"/>
</linearGradient>
</defs>
</svg>
