<svg width="25" height="23" viewBox="0 0 25 23" fill="none" xmlns="http://www.w3.org/2000/svg">
<path d="M8.9904 11.5221H10V9.66442H11.5144L12.0192 9.2V7.3423L11.5144 6.87788H8.9904V11.5221ZM10 8.73557V7.80673H11.0096V8.73557H10ZM13.0289 11.5221H15.5529L16.0577 11.0577V7.3423L15.5529 6.87788H13.0289V11.5221ZM14.0385 10.5933V7.80673H15.0481V10.5933H14.0385ZM17.0673 11.5221H18.0769V9.66442H19.0866V8.73557H18.0769V7.80673H19.0866V6.87788H17.0673V11.5221ZM5.96156 16.6308V1.76923H22.1154V16.6308H5.96156ZM7.98079 14.7731H20.0962V3.62692H7.98079V14.7731ZM1.9231 20.3461V5.48461H3.94233V18.4885H18.0769V20.3461H1.9231Z" fill="black"/>
</svg>
