<svg width="26" height="27" viewBox="0 0 26 27" fill="none" xmlns="http://www.w3.org/2000/svg">
<path d="M3.09726 3.23775L16.7148 1.21725C16.7916 1.2058 16.8699 1.21164 16.9444 1.23438C17.0189 1.25711 17.0878 1.29621 17.1465 1.34902C17.2051 1.40183 17.2522 1.46712 17.2844 1.54047C17.3167 1.61381 17.3334 1.6935 17.3333 1.77412V25.227C17.3333 25.3075 17.3167 25.3871 17.2845 25.4603C17.2523 25.5336 17.2054 25.5988 17.1468 25.6516C17.0883 25.7044 17.0195 25.7435 16.9452 25.7664C16.8708 25.7892 16.7926 25.7951 16.7158 25.7839L3.09617 23.7634C2.83793 23.7252 2.60162 23.5915 2.43067 23.3869C2.25971 23.1823 2.16559 22.9205 2.16559 22.6496V4.3515C2.16559 4.08061 2.25971 3.81882 2.43067 3.61422C2.60162 3.40962 2.83901 3.27594 3.09726 3.23775ZM4.33334 5.32687V21.6731L15.1667 23.2819V3.71812L4.33334 5.32687ZM18.4167 21.375H21.6667V5.625H18.4167V3.375H22.75C23.0373 3.375 23.3129 3.49352 23.516 3.7045C23.7192 3.91548 23.8333 4.20163 23.8333 4.5V22.5C23.8333 22.7984 23.7192 23.0845 23.516 23.2955C23.3129 23.5065 23.0373 23.625 22.75 23.625H18.4167V21.375ZM11.05 13.5L14.0833 18H11.4833L9.75001 15.4282L8.01667 18H5.41667L8.45001 13.5L5.41667 9H8.01667L9.75001 11.5717L11.4833 9H14.0833L11.05 13.5Z" fill="black"/>
</svg>
