<svg width="22" height="20" viewBox="0 0 22 20" fill="none" xmlns="http://www.w3.org/2000/svg">
<path d="M8.8 8.5H9.9C10.2117 8.5 10.4731 8.404 10.6843 8.212C10.8955 8.02 11.0007 7.78267 11 7.5V6.5C11 6.21667 10.8944 5.979 10.6832 5.787C10.472 5.595 10.2109 5.49933 9.9 5.5H8.25C8.10333 5.5 7.975 5.55 7.865 5.65C7.755 5.75 7.7 5.86667 7.7 6V10C7.7 10.1333 7.755 10.25 7.865 10.35C7.975 10.45 8.10333 10.5 8.25 10.5C8.39667 10.5 8.525 10.45 8.635 10.35C8.745 10.25 8.8 10.1333 8.8 10V8.5ZM8.8 7.5V6.5H9.9V7.5H8.8ZM14.3 10.5C14.6117 10.5 14.8731 10.404 15.0843 10.212C15.2955 10.02 15.4007 9.78267 15.4 9.5V6.5C15.4 6.21667 15.2944 5.979 15.0832 5.787C14.872 5.595 14.6109 5.49933 14.3 5.5H12.65C12.5033 5.5 12.375 5.55 12.265 5.65C12.155 5.75 12.1 5.86667 12.1 6V10C12.1 10.1333 12.155 10.25 12.265 10.35C12.375 10.45 12.5033 10.5 12.65 10.5H14.3ZM13.2 9.5V6.5H14.3V9.5H13.2ZM17.6 8.5H18.15C18.2967 8.5 18.425 8.45 18.535 8.35C18.645 8.25 18.7 8.13333 18.7 8C18.7 7.86667 18.645 7.75 18.535 7.65C18.425 7.55 18.2967 7.5 18.15 7.5H17.6V6.5H18.15C18.2967 6.5 18.425 6.45 18.535 6.35C18.645 6.25 18.7 6.13333 18.7 6C18.7 5.86667 18.645 5.75 18.535 5.65C18.425 5.55 18.2967 5.5 18.15 5.5H17.05C16.9033 5.5 16.775 5.55 16.665 5.65C16.555 5.75 16.5 5.86667 16.5 6V10C16.5 10.1333 16.555 10.25 16.665 10.35C16.775 10.45 16.9033 10.5 17.05 10.5C17.1967 10.5 17.325 10.45 17.435 10.35C17.545 10.25 17.6 10.1333 17.6 10V8.5ZM6.6 16C5.995 16 5.4769 15.804 5.0457 15.412C4.6145 15.02 4.39927 14.5493 4.4 14V2C4.4 1.45 4.6156 0.979001 5.0468 0.587001C5.478 0.195002 5.99573 -0.000664969 6.6 1.69779e-06H19.8C20.405 1.69779e-06 20.9231 0.196002 21.3543 0.588002C21.7855 0.980001 22.0007 1.45067 22 2V14C22 14.55 21.7844 15.021 21.3532 15.413C20.922 15.805 20.4043 16.0007 19.8 16H6.6ZM2.2 20C1.595 20 1.0769 19.804 0.645702 19.412C0.214502 19.02 -0.000731466 18.5493 1.86757e-06 18V5C1.86757e-06 4.71667 0.105602 4.479 0.316802 4.287C0.528002 4.095 0.789068 3.99933 1.1 4C1.41167 4 1.6731 4.096 1.8843 4.288C2.0955 4.48 2.20073 4.71733 2.2 5V18H16.5C16.8117 18 17.0731 18.096 17.2843 18.288C17.4955 18.48 17.6007 18.7173 17.6 19C17.6 19.2833 17.4944 19.521 17.2832 19.713C17.072 19.905 16.8109 20.0007 16.5 20H2.2Z" fill="black"/>
</svg>
