<svg width="26" height="24" viewBox="0 0 26 24" fill="none" xmlns="http://www.w3.org/2000/svg">
<path d="M3.09726 2.87797L16.7148 1.08197C16.7916 1.07179 16.8699 1.07699 16.9444 1.0972C17.0189 1.11741 17.0878 1.15216 17.1465 1.1991C17.2051 1.24605 17.2522 1.30408 17.2844 1.36928C17.3167 1.43447 17.3334 1.5053 17.3333 1.57697V22.424C17.3333 22.4955 17.3167 22.5663 17.2845 22.6314C17.2523 22.6965 17.2054 22.7545 17.1468 22.8014C17.0883 22.8483 17.0195 22.8831 16.9452 22.9034C16.8708 22.9237 16.7926 22.929 16.7158 22.919L3.09617 21.123C2.83793 21.089 2.60162 20.9702 2.43067 20.7883C2.25971 20.6065 2.16559 20.3738 2.16559 20.133V3.86797C2.16559 3.62718 2.25971 3.39448 2.43067 3.21261C2.60162 3.03075 2.83901 2.91192 3.09726 2.87797ZM18.4167 2.99997H22.75C23.0373 2.99997 23.3129 3.10533 23.516 3.29286C23.7192 3.4804 23.8333 3.73475 23.8333 3.99997V20C23.8333 20.2652 23.7192 20.5195 23.516 20.7071C23.3129 20.8946 23.0373 21 22.75 21H18.4167V2.99997ZM11.05 12L14.0833 7.99997H11.4833L9.75001 10.286L8.01667 7.99997H5.41667L8.45001 12L5.41667 16H8.01667L9.75001 13.714L11.4833 16H14.0833L11.05 12Z" fill="black"/>
</svg>
