<svg width="48" height="48" viewBox="0 0 48 48" fill="none" xmlns="http://www.w3.org/2000/svg">
<path d="M29.3716 23.0246L12.7681 20.0996V41.7131C12.7683 41.9479 12.8147 42.1804 12.9047 42.3972C12.9948 42.6141 13.1266 42.8111 13.2928 42.977C13.459 43.1429 13.6562 43.2744 13.8732 43.3641C14.0902 43.4538 14.3228 43.4998 14.5576 43.4996H43.2076C43.4426 43.5002 43.6755 43.4544 43.8928 43.3649C44.1102 43.2754 44.3078 43.144 44.4743 42.978C44.6407 42.8121 44.7729 42.615 44.8631 42.3979C44.9533 42.1809 44.9999 41.9482 45.0001 41.7131V33.7496L29.3716 23.0246Z" fill="#185C37"/>
<path d="M29.3716 4.5H14.5576C14.3228 4.4998 14.0902 4.54586 13.8732 4.63553C13.6562 4.7252 13.459 4.85674 13.2928 5.02263C13.1266 5.18852 12.9948 5.38552 12.9047 5.60238C12.8147 5.81923 12.7683 6.0517 12.7681 6.2865V14.25L29.3716 24L38.1631 26.925L45.0001 24V14.25L29.3716 4.5Z" fill="#21A366"/>
<path d="M12.7681 14.25H29.3716V24H12.7681V14.25Z" fill="#107C41"/>
<path opacity="0.1" d="M24.6511 12.2998H12.7681V36.6748H24.6511C25.1246 36.6725 25.5781 36.4836 25.9133 36.1492C26.2485 35.8148 26.4385 35.3618 26.4421 34.8883V14.0863C26.4385 13.6128 26.2485 13.1598 25.9133 12.8254C25.5781 12.491 25.1246 12.3022 24.6511 12.2998Z" fill="black"/>
<path opacity="0.2" d="M23.6746 13.2754H12.7681V37.6504H23.6746C24.1481 37.648 24.6016 37.4592 24.9368 37.1248C25.272 36.7904 25.462 36.3374 25.4656 35.8639V15.0619C25.462 14.5884 25.272 14.1354 24.9368 13.801C24.6016 13.4666 24.1481 13.2777 23.6746 13.2754Z" fill="black"/>
<path opacity="0.2" d="M23.6746 13.2754H12.7681V35.7004H23.6746C24.1481 35.698 24.6016 35.5092 24.9368 35.1748C25.272 34.8404 25.462 34.3874 25.4656 33.9139V15.0619C25.462 14.5884 25.272 14.1354 24.9368 13.801C24.6016 13.4666 24.1481 13.2777 23.6746 13.2754Z" fill="black"/>
<path opacity="0.2" d="M22.6981 13.2754H12.7681V35.7004H22.6981C23.1716 35.698 23.6251 35.5092 23.9603 35.1748C24.2955 34.8404 24.4855 34.3874 24.4891 33.9139V15.0619C24.4855 14.5884 24.2955 14.1354 23.9603 13.801C23.6251 13.4666 23.1716 13.2777 22.6981 13.2754Z" fill="black"/>
<path d="M4.791 13.2754H22.698C23.1723 13.275 23.6274 13.4629 23.9633 13.7979C24.2991 14.1329 24.4882 14.5875 24.489 15.0619V32.9389C24.4882 33.4132 24.2991 33.8679 23.9633 34.2029C23.6274 34.5378 23.1723 34.7258 22.698 34.7254H4.791C4.55607 34.7258 4.32337 34.6799 4.10619 34.5903C3.88901 34.5007 3.69161 34.3692 3.52528 34.2033C3.35895 34.0374 3.22695 33.8403 3.13682 33.6234C3.04669 33.4064 3.0002 33.1738 3 32.9389V15.0619C3.0002 14.827 3.04669 14.5944 3.13682 14.3774C3.22695 14.1605 3.35895 13.9634 3.52528 13.7975C3.69161 13.6316 3.88901 13.5001 4.10619 13.4105C4.32337 13.3209 4.55607 13.275 4.791 13.2754Z" fill="url(#paint0_linear_102_558)"/>
<path d="M8.55005 29.8094L12.3165 23.9834L8.86655 18.1904H11.637L13.5195 21.8999C13.6935 22.2509 13.8195 22.5119 13.8765 22.6859H13.902C14.025 22.4039 14.1555 22.1324 14.292 21.8669L16.305 18.1964H18.855L15.3165 23.9564L18.945 29.8139H16.2315L14.0565 25.7474C13.9556 25.5726 13.8697 25.3894 13.8 25.1999H13.764C13.7006 25.3846 13.6161 25.5612 13.512 25.7264L11.2725 29.8094H8.55005Z" fill="white"/>
<path d="M43.2091 4.5H29.3716V14.25H45.0001V6.2865C44.9999 6.05157 44.9534 5.81898 44.8633 5.60203C44.7731 5.38508 44.6411 5.18802 44.4748 5.0221C44.3085 4.85619 44.1111 4.72469 43.8939 4.6351C43.6767 4.54552 43.444 4.49961 43.2091 4.5Z" fill="#33C481"/>
<path d="M29.3716 24H45.0001V33.75H29.3716V24Z" fill="#107C41"/>
<defs>
<linearGradient id="paint0_linear_102_558" x1="6.741" y1="11.8714" x2="20.748" y2="36.1294" gradientUnits="userSpaceOnUse">
<stop stop-color="#18884F"/>
<stop offset="0.5" stop-color="#117E43"/>
<stop offset="1" stop-color="#0B6631"/>
</linearGradient>
</defs>
</svg>
