<svg width="57" height="53" viewBox="0 0 57 53" fill="none" xmlns="http://www.w3.org/2000/svg">
<path fill-rule="evenodd" clip-rule="evenodd" d="M16.53 37.1H14.25V39.75H16.53C17.385 39.75 17.955 39.22 17.955 38.425C17.955 37.63 17.385 37.1 16.53 37.1ZM31.35 5.29999H8.55005V47.7H45.6V18.55L31.35 5.29999ZM20.52 38.69C20.52 40.81 18.81 42.4 16.53 42.4H14.25V45.05H11.4V34.45H16.53C18.81 34.45 20.52 36.04 20.52 38.16V38.69ZM32.205 40.015C32.205 42.665 29.925 45.05 26.79 45.05H22.8V34.45H26.79C29.64 34.45 32.205 36.57 32.205 39.485V40.015ZM42.75 37.1H37.05V39.75H41.325V42.4H37.05V45.05H34.2V34.45H42.75V37.1ZM42.75 31.8H11.4V7.94999H31.35V18.55H42.75V31.8ZM26.79 37.1H25.65V42.4H26.79C28.5 42.4 29.64 41.34 29.64 39.75C29.64 38.16 28.215 37.1 26.79 37.1Z" fill="black"/>
</svg>
