<svg width="32" height="32" viewBox="0 0 32 32" fill="none" xmlns="http://www.w3.org/2000/svg">
<path d="M17.3334 12H24.6667L17.3334 4.66669V12ZM8.00004 2.66669H18.6667L26.6667 10.6667V26.6667C26.6667 27.3739 26.3858 28.0522 25.8857 28.5523C25.3856 29.0524 24.7073 29.3334 24 29.3334H8.00004C7.2928 29.3334 6.61452 29.0524 6.11442 28.5523C5.61433 28.0522 5.33337 27.3739 5.33337 26.6667V5.33335C5.33337 3.85335 6.52004 2.66669 8.00004 2.66669ZM9.33337 26.6667H12V18.6667H9.33337V26.6667ZM14.6667 26.6667H17.3334V16H14.6667V26.6667ZM20 26.6667H22.6667V21.3334H20V26.6667Z" fill="black"/>
</svg>
