<svg width="111" height="111" viewBox="0 0 111 111" fill="none" xmlns="http://www.w3.org/2000/svg">
<path fill-rule="evenodd" clip-rule="evenodd" d="M55.5 18.5C49.0285 18.4988 42.6699 20.195 37.0588 23.4193C31.4477 26.6436 26.7804 31.2831 23.5228 36.8749C20.2652 42.4667 18.5312 48.8151 18.4938 55.2865C18.4565 61.7579 20.1171 68.1259 23.31 73.7549C25.4681 70.9502 28.2422 68.6793 31.418 67.1179C34.5938 65.5565 38.0861 64.7463 41.625 64.75H69.375C72.9139 64.7463 76.4062 65.5565 79.582 67.1179C82.7578 68.6793 85.5319 70.9502 87.69 73.7549C90.8829 68.1259 92.5435 61.7579 92.5062 55.2865C92.4688 48.8151 90.7348 42.4667 87.4772 36.8749C84.2196 31.2831 79.5523 26.6436 73.9412 23.4193C68.3301 20.195 61.9715 18.4988 55.5 18.5ZM92.2364 83.6015C98.4201 75.54 101.765 65.6601 101.75 55.5C101.75 29.9561 81.0439 9.25 55.5 9.25C29.9561 9.25 9.25 29.9561 9.25 55.5C9.23473 65.6601 12.5796 75.5401 18.7636 83.6015L18.7405 83.6847L20.3824 85.5949C24.7201 90.6662 30.1059 94.7367 36.1686 97.5257C42.2312 100.315 48.8266 101.756 55.5 101.75C64.8764 101.767 74.0342 98.9191 81.7469 93.5869C85.0349 91.3151 88.0164 88.629 90.6176 85.5949L92.2595 83.6847L92.2364 83.6015ZM55.5 27.75C51.8201 27.75 48.291 29.2118 45.6889 31.8139C43.0868 34.416 41.625 37.9451 41.625 41.625C41.625 45.3049 43.0868 48.834 45.6889 51.4361C48.291 54.0382 51.8201 55.5 55.5 55.5C59.1799 55.5 62.709 54.0382 65.3111 51.4361C67.9132 48.834 69.375 45.3049 69.375 41.625C69.375 37.9451 67.9132 34.416 65.3111 31.8139C62.709 29.2118 59.1799 27.75 55.5 27.75Z" fill="black"/>
</svg>
