<svg width="108" height="108" viewBox="0 0 108 108" fill="none" xmlns="http://www.w3.org/2000/svg">
<path d="M32.2025 54.595C33.2416 54.8478 34.3057 54.9837 35.375 55C38.056 54.9993 40.676 54.2004 42.9012 52.705L53.7688 62.3913C52.9079 64.026 52.4026 65.8245 52.2863 67.6684C52.17 69.5123 52.4451 71.36 53.0938 73.09C53.775 75.0502 54.899 76.8269 56.3785 78.2822C57.8579 79.7374 59.6529 80.8321 61.624 81.481C63.5951 82.1299 65.6893 82.3157 67.7439 82.0239C69.7985 81.732 71.7581 80.9705 73.4706 79.7984C75.1831 78.6262 76.6023 77.0751 77.618 75.2655C78.6337 73.4558 79.2185 71.4364 79.327 69.364C79.4356 67.2916 79.0649 65.2221 78.2437 63.3163C77.4226 61.4105 76.1732 59.7196 74.5925 58.375L83.165 41.1963C84.8382 41.5736 86.5704 41.6097 88.2579 41.3024C89.9453 40.9951 91.5535 40.3506 92.9863 39.4075C95.4193 37.9226 97.32 35.7058 98.4159 33.0745C99.5118 30.4432 99.7467 27.5326 99.0871 24.7596C98.4274 21.9866 96.907 19.4936 94.7436 17.6377C92.5802 15.7818 89.8849 14.6583 87.0438 14.4281C84.2028 14.1979 81.3618 14.8728 78.9278 16.3562C76.4939 17.8397 74.5919 20.0554 73.4944 22.686C72.3969 25.3166 72.1602 28.2271 72.8182 31.0005C73.4763 33.7739 74.9952 36.2678 77.1575 38.125L68.585 55.3037C67.654 55.0991 66.7033 54.9972 65.75 55C63.069 55.0007 60.449 55.7996 58.2238 57.295L47.3563 47.6088C48.2171 45.974 48.7224 44.1755 48.8387 42.3316C48.955 40.4877 48.6799 38.64 48.0312 36.91C47.355 34.9641 46.2424 33.1987 44.7786 31.7491C43.3148 30.2995 41.5386 29.2042 39.5862 28.547C37.6337 27.8897 35.5568 27.6881 33.5144 27.9574C31.472 28.2267 29.5183 28.9599 27.8029 30.1008C26.0876 31.2417 24.6561 32.76 23.6182 34.5395C22.5802 36.319 21.9632 38.3125 21.8145 40.3672C21.6658 42.4219 21.9894 44.4834 22.7604 46.3938C23.5313 48.3042 24.7293 50.0128 26.2625 51.3888L11.75 78.625V1H5V88.75C5 90.5402 5.71116 92.2571 6.97703 93.523C8.2429 94.7888 9.95979 95.5 11.75 95.5H99.5V88.75H14.0113L32.2025 54.595ZM86 21.25C87.335 21.25 88.6401 21.6459 89.7501 22.3876C90.8601 23.1293 91.7253 24.1835 92.2362 25.4169C92.7471 26.6503 92.8808 28.0075 92.6203 29.3169C92.3598 30.6262 91.717 31.829 90.773 32.773C89.829 33.717 88.6262 34.3599 87.3169 34.6203C86.0075 34.8808 84.6503 34.7471 83.4169 34.2362C82.1835 33.7253 81.1293 32.8601 80.3876 31.7501C79.6459 30.6401 79.25 29.335 79.25 28C79.25 26.2098 79.9612 24.4929 81.227 23.227C82.4929 21.9612 84.2098 21.25 86 21.25ZM72.5 68.5C72.5 69.835 72.1041 71.1401 71.3624 72.2501C70.6207 73.3601 69.5665 74.2253 68.3331 74.7362C67.0997 75.2471 65.7425 75.3808 64.4331 75.1203C63.1238 74.8598 61.921 74.217 60.977 73.273C60.033 72.329 59.3901 71.1262 59.1297 69.8169C58.8692 68.5075 59.0029 67.1503 59.5138 65.9169C60.0247 64.6835 60.8899 63.6293 61.9999 62.8876C63.1099 62.1459 64.415 61.75 65.75 61.75C67.5402 61.75 69.2571 62.4612 70.523 63.727C71.7888 64.9929 72.5 66.7098 72.5 68.5ZM35.375 34.75C36.71 34.75 38.0151 35.1459 39.1251 35.8876C40.2351 36.6293 41.1003 37.6835 41.6112 38.9169C42.1221 40.1503 42.2558 41.5075 41.9953 42.8169C41.7349 44.1262 41.092 45.329 40.148 46.273C39.204 47.217 38.0012 47.8599 36.6919 48.1203C35.3825 48.3808 34.0253 48.2471 32.7919 47.7362C31.5585 47.2253 30.5043 46.3601 29.7626 45.2501C29.0209 44.1401 28.625 42.835 28.625 41.5C28.625 39.7098 29.3362 37.9929 30.602 36.727C31.8679 35.4612 33.5848 34.75 35.375 34.75Z" fill="black"/>
</svg>
